<?xml version="1.0" standalone="no"?><!DOCTYPE svg PUBLIC "-//W3C//DTD SVG 1.1//EN" "http://www.w3.org/Graphics/SVG/1.1/DTD/svg11.dtd"><svg t="1569151350856" class="icon" viewBox="0 0 1024 1024" version="1.1" xmlns="http://www.w3.org/2000/svg" p-id="3970" xmlns:xlink="http://www.w3.org/1999/xlink" width="200" height="200"><defs><style type="text/css"></style></defs><path d="M682.667 533.333a21.333 21.333 0 0 1-15.147-6.186L368.853 228.48a21.333 21.333 0 0 1 30.294-30.293l298.666 298.666a21.333 21.333 0 0 1 0 30.294 21.333 21.333 0 0 1-15.146 6.186z" p-id="3971"></path><path d="M384 832a21.333 21.333 0 0 1-15.147-6.187 21.333 21.333 0 0 1 0-30.293L667.52 496.853a21.333 21.333 0 0 1 30.293 30.294L399.147 825.813A21.333 21.333 0 0 1 384 832z" p-id="3972"></path></svg>